<?xml version="1.0" standalone="no"?>
<!DOCTYPE svg PUBLIC "-//W3C//DTD SVG 20010904//EN"
 "http://www.w3.org/TR/2001/REC-SVG-20010904/DTD/svg10.dtd">
<svg version="1.0" xmlns="http://www.w3.org/2000/svg"
 width="264.000000pt" height="280.000000pt" viewBox="0 0 264.000000 280.000000"
 preserveAspectRatio="xMidYMid meet">

<g transform="translate(0.000000,280.000000) scale(0.100000,-0.100000)"
fill="#000000" stroke="none">
<path d="M900 2699 c0 -5 -4 -8 -9 -5 -4 3 -17 -1 -27 -10 -18 -14 -17 -14 6
-4 24 11 24 10 6 -4 -11 -9 -26 -16 -33 -16 -13 0 -144 -67 -190 -97 -14 -9
-23 -25 -23 -40 0 -16 -12 -35 -32 -51 -182 -153 -226 -241 -235 -469 -4 -89
-2 -146 6 -175 7 -24 16 -68 21 -98 25 -167 34 -191 167 -440 40 -74 65 -136
72 -174 6 -32 20 -73 32 -90 16 -25 19 -26 14 -8 -5 16 -1 30 11 43 9 10 14
22 11 26 -4 3 1 12 11 19 9 7 12 14 6 14 -6 0 -9 13 -7 33 2 17 4 49 3 70 0
20 4 37 10 37 5 0 10 5 10 11 0 6 -6 9 -14 6 -10 -4 -13 3 -11 25 2 22 -4 37
-22 54 -13 12 -35 53 -49 90 -13 37 -31 75 -39 84 -25 28 -20 123 10 170 35
56 67 74 128 72 43 -1 56 -6 74 -26 12 -15 28 -26 36 -26 8 0 22 -9 32 -20 10
-11 25 -20 33 -20 8 0 23 -9 33 -21 23 -26 23 -26 42 -11 10 9 17 10 22 2 3
-5 1 -10 -5 -10 -6 0 -8 -5 -5 -10 4 -6 11 -8 16 -5 5 4 9 -1 9 -9 0 -9 5 -16
10 -16 6 0 10 -7 10 -16 0 -10 6 -14 14 -11 8 3 32 -1 53 -10 40 -17 73 -65
73 -106 0 -12 4 -17 8 -12 4 6 13 11 21 13 10 2 12 -4 7 -23 -5 -21 -3 -25 16
-26 13 0 17 -3 11 -6 -7 -2 -13 -9 -13 -14 0 -6 8 -6 19 1 24 12 41 13 21 0
-24 -15 -1 -25 33 -13 17 6 49 10 70 8 29 -3 39 1 48 17 8 15 14 17 22 9 6 -6
19 -11 29 -11 34 0 18 -20 -22 -26 -22 -4 -38 -10 -35 -14 2 -4 17 -5 31 -2
19 3 25 1 20 -7 -4 -6 -2 -11 3 -11 6 0 11 5 11 10 0 16 53 8 68 -10 10 -11
11 -11 6 -1 -4 9 2 21 17 33 19 14 20 17 5 11 -19 -6 -19 -6 0 20 27 37 34 34
34 -18 0 -61 39 -137 87 -170 21 -14 42 -25 47 -25 11 0 88 -50 98 -64 7 -10
36 -11 148 -4 53 3 66 7 68 22 2 10 -2 22 -10 27 -20 12 -89 0 -120 -22 -33
-23 -38 -23 -38 -4 0 8 -4 15 -8 15 -20 0 -8 42 22 77 39 44 71 105 81 150 3
18 11 36 17 39 7 4 8 2 4 -4 -5 -8 2 -10 22 -6 25 5 32 1 50 -30 12 -20 25
-36 30 -36 11 0 32 24 47 54 6 11 20 22 33 24 12 2 38 23 58 48 44 54 59 56
51 8 -10 -60 -58 -115 -76 -86 -3 5 -6 -18 -7 -51 -1 -39 -10 -88 -26 -132
-39 -108 -40 -112 -23 -83 8 15 29 67 46 115 17 49 41 99 52 113 l22 25 -22
-19 c-18 -15 -23 -16 -23 -5 0 8 13 22 29 32 26 15 48 57 42 81 -1 4 4 14 10
22 17 21 12 166 -6 177 -8 4 -15 17 -15 29 0 17 3 18 15 8 8 -7 12 -16 9 -21
-3 -5 2 -9 10 -9 18 0 21 16 6 25 -11 7 -14 55 -4 55 4 0 13 -8 20 -17 24 -32
16 6 -15 71 -16 33 -39 87 -51 118 -12 32 -26 60 -31 63 -5 4 -9 22 -9 41 0
19 -4 34 -10 34 -5 0 -10 11 -10 25 0 14 5 25 10 25 18 0 11 34 -14 71 -14 20
-28 53 -32 74 -5 29 -13 40 -35 49 -23 8 -28 15 -23 31 5 16 4 18 -7 8 -21
-21 -32 -15 -25 13 8 29 -1 64 -15 64 -6 0 -7 -4 -4 -10 3 -5 1 -10 -4 -10
-14 0 -14 27 -1 35 12 8 13 25 1 25 -4 0 -20 -12 -35 -26 -27 -28 -29 -27 -26
19 1 25 -1 28 -19 22 -16 -5 -21 -2 -21 10 0 12 -5 15 -16 11 -8 -3 -25 -1
-37 6 -21 11 -82 19 -137 18 -35 0 -80 20 -80 36 0 19 -33 34 -74 34 -25 0
-51 11 -83 34 l-48 34 -100 -4 c-55 -2 -131 -10 -170 -16 -85 -14 -144 -15
-153 -2 -4 5 -18 9 -32 7 -80 -6 -149 -7 -155 -1 -4 3 1 18 10 32 11 16 13 26
6 26 -6 0 -11 -5 -11 -11z m1097 -821 c-2 -7 2 -21 11 -30 14 -16 13 -20 -2
-37 -19 -21 -72 -25 -54 -3 7 8 7 12 -1 12 -7 0 1 16 16 35 30 37 38 43 30 23z
m23 -96 c0 -15 -40 -91 -51 -98 -8 -4 -9 -3 -5 4 4 7 3 12 -2 12 -15 0 -21 38
-8 53 20 26 66 46 66 29z m31 -36 c-6 -14 -13 -26 -16 -26 -7 0 -1 32 9 48 13
21 17 7 7 -22z m40 -43 c-8 -38 -26 -66 -38 -62 -12 5 22 89 35 89 5 0 7 -12
3 -27z m-98 -48 c-3 -9 -8 -14 -10 -11 -3 3 -2 9 2 15 9 16 15 13 8 -4z m-13
-29 c0 -2 -8 -10 -17 -17 -16 -13 -17 -12 -4 4 13 16 21 21 21 13z m231 -27
c-5 -13 -10 -19 -10 -12 -1 15 10 45 15 40 3 -2 0 -15 -5 -28z m63 -11 c4 -15
0 -27 -11 -35 -22 -17 -24 -13 -17 25 8 37 19 41 28 10z m-281 -9 c-5 -16 -1
-20 13 -19 43 5 47 1 41 -35 -6 -34 -27 -65 -44 -65 -15 0 -43 113 -31 127 16
20 27 15 21 -8z m-23 -117 c0 -46 -12 -77 -32 -85 -18 -6 -24 128 -7 150 12
13 14 13 26 -3 7 -10 13 -38 13 -62z m223 54 c-10 -13 -20 -22 -22 -20 -4 4
29 44 36 44 2 0 -4 -11 -14 -24z m-293 -35 c15 -29 12 -104 -5 -127 -8 -10
-15 -30 -15 -43 0 -15 -13 -35 -35 -54 -41 -35 -45 -50 -9 -37 14 6 23 6 19 1
-3 -5 -21 -15 -40 -21 -29 -10 -41 -8 -80 9 -64 28 -92 94 -86 206 2 46 43 67
120 60 37 -4 61 -2 61 4 0 5 10 12 23 14 12 2 25 5 29 6 4 0 12 -8 18 -18z"/>
<path d="M1989 1823 c-13 -16 -12 -17 4 -4 9 7 17 15 17 17 0 8 -8 3 -21 -13z"/>
<path d="M1851 1304 c0 -11 3 -14 6 -6 3 7 2 16 -1 19 -3 4 -6 -2 -5 -13z"/>
<path d="M682 1730 c-50 -31 -74 -76 -68 -130 4 -42 33 -110 46 -110 7 0 -5
106 -15 136 -5 17 2 28 31 53 63 51 87 39 77 -38 -6 -46 -3 -48 32 -25 13 9
28 13 33 10 5 -3 6 12 2 36 -6 29 -17 50 -37 65 -35 28 -58 29 -101 3z"/>
<path d="M850 1608 c0 -5 -8 -7 -19 -3 -12 3 -21 0 -25 -10 -3 -8 -21 -22 -40
-32 -48 -23 -62 -58 -46 -123 7 -31 19 -54 29 -57 20 -7 91 -74 91 -86 0 -5
-11 -6 -25 -3 -14 4 -25 2 -25 -4 0 -5 5 -10 10 -10 6 0 8 -10 4 -24 -4 -16
-1 -25 10 -29 13 -5 14 -10 5 -25 -17 -27 -5 -56 18 -44 10 5 23 8 29 5 6 -2
17 4 24 12 12 14 10 15 -13 10 -19 -5 -27 -3 -27 6 0 7 3 10 6 7 3 -4 21 0 40
8 27 11 34 12 34 2 1 -8 6 -6 14 5 13 17 16 14 39 -35 24 -50 49 -192 31 -175
-5 5 -9 16 -9 25 0 9 -13 19 -34 25 -25 6 -31 11 -21 17 7 4 19 6 27 3 7 -3
13 0 13 5 0 6 -11 9 -25 6 -17 -3 -25 0 -25 10 0 29 -28 25 -41 -6 l-12 -30
-18 23 c-18 25 -15 56 5 40 7 -6 16 -4 24 5 10 11 10 14 0 15 -7 1 -25 2 -40
3 -18 2 -34 -5 -45 -17 -10 -11 -13 -18 -8 -14 6 3 17 2 25 -3 12 -7 10 -12
-8 -28 -24 -21 -30 -38 -9 -26 6 4 -1 -7 -16 -23 -17 -18 -24 -33 -18 -37 5
-4 9 -20 9 -36 -1 -16 -5 -27 -9 -24 -4 2 -7 -4 -6 -15 1 -15 5 -17 18 -10 15
8 17 5 14 -21 -2 -17 -7 -35 -10 -40 -3 -6 -2 -10 2 -10 5 0 9 -9 10 -21 2
-19 1 -20 -22 -5 -22 15 -24 14 -31 -7 -5 -12 -7 -26 -6 -30 1 -5 -2 -6 -8 -2
-5 3 -13 -1 -16 -9 -3 -9 -10 -13 -15 -10 -5 3 -9 0 -9 -5 0 -6 6 -11 13 -11
6 0 4 -5 -6 -11 -9 -6 -14 -15 -11 -21 4 -7 2 -8 -4 -4 -7 4 -12 16 -12 26 0
25 -17 35 -23 13 -2 -10 -4 -6 -3 8 1 15 -3 26 -11 26 -7 0 -13 -7 -13 -15 0
-8 -6 -12 -15 -9 -8 4 -17 2 -20 -3 -3 -4 -1 -10 4 -12 5 -1 3 -9 -5 -16 -27
-25 -15 22 20 81 19 31 29 57 23 57 -7 0 -50 5 -97 10 -61 7 -96 6 -125 -2
-22 -6 -62 -10 -88 -9 -27 2 -61 -2 -76 -9 -23 -9 -46 -6 -139 19 l-112 30 0
-450 0 -449 1320 0 1320 0 0 94 c0 83 -3 99 -29 147 -15 30 -32 65 -36 78 -12
39 -47 72 -103 97 l-52 23 -43 -29 c-23 -16 -60 -47 -82 -70 -22 -23 -58 -51
-80 -62 -22 -11 -61 -36 -88 -54 -26 -19 -52 -34 -57 -34 -6 0 -37 -11 -70
-24 l-60 -25 -26 52 c-40 79 -87 131 -148 163 -55 28 -70 44 -42 44 17 0 27
35 14 48 -6 6 1 18 19 32 20 17 23 21 8 17 -17 -6 -18 -5 -4 5 16 14 21 68 6
68 -4 0 -5 5 -1 11 4 8 -3 9 -24 4 -18 -3 -33 -2 -37 4 -3 6 -12 11 -20 11
-21 0 -115 62 -115 76 0 7 -14 15 -30 19 -26 6 -29 9 -19 21 7 9 8 14 3 13
-19 -3 -31 1 -31 14 0 6 -3 24 -6 40 -5 23 -2 27 18 27 26 0 42 29 23 42 -19
12 -25 10 -41 -12 -9 -13 -20 -18 -30 -14 -13 4 -15 0 -11 -19 2 -14 0 -28 -5
-31 -5 -3 -9 0 -8 7 2 50 -3 56 -34 52 -27 -3 -30 -1 -26 16 3 10 1 19 -4 19
-5 0 -9 -5 -9 -12 0 -6 -10 -2 -22 9 -13 12 -39 26 -58 31 -28 7 -34 13 -33
30 3 23 -11 30 -22 12 -9 -14 -28 -12 -22 3 2 6 0 20 -5 30 -5 10 -5 17 1 17
5 0 11 -5 13 -12 3 -7 7 -6 11 5 5 14 0 17 -26 18 -54 1 -89 7 -100 18 -14 14
-27 14 -27 0 0 -5 5 -7 12 -3 7 4 8 3 4 -4 -4 -7 -11 -12 -15 -12 -13 0 -31
49 -31 84 0 18 -7 55 -16 82 -22 70 -24 92 -8 104 11 10 13 6 9 -19 -2 -17 1
-33 6 -36 5 -4 10 11 10 32 1 21 3 30 6 21 5 -19 33 -25 33 -8 0 6 -4 10 -10
10 -5 0 -10 4 -10 10 0 5 8 6 17 3 14 -5 13 -3 -3 14 -10 11 -25 29 -33 41 -8
11 -19 19 -23 16 -5 -3 -4 -12 3 -20 14 -17 3 -19 -15 -2 -7 7 -11 20 -8 30 3
12 -1 18 -12 18 -9 0 -16 7 -16 16 0 13 -7 15 -30 11 -27 -6 -30 -4 -30 18 0
13 -6 28 -13 32 -8 4 -17 25 -20 45 -5 32 -1 41 24 65 l29 29 -40 11 c-24 6
-40 6 -40 1z m-77 -133 c-5 -13 -23 -22 -23 -11 0 15 14 35 21 31 4 -3 6 -12
2 -20z m147 -111 c0 -8 -4 -12 -10 -9 -5 3 -10 10 -10 16 0 5 5 9 10 9 6 0 10
-7 10 -16z m-86 -189 c-4 -8 -8 -15 -10 -15 -2 0 -4 7 -4 15 0 8 4 15 10 15 5
0 7 -7 4 -15z m93 -97 c-3 -8 -6 -5 -6 6 -1 11 2 17 5 13 3 -3 4 -12 1 -19z
m378 -218 c-3 -5 -10 -10 -16 -10 -5 0 -9 5 -9 10 0 6 7 10 16 10 8 0 12 -4 9
-10z m-525 -65 c11 -13 10 -14 -4 -9 -9 3 -16 10 -16 15 0 13 6 11 20 -6z"/>
<path d="M1056 1433 c-6 -14 -5 -15 5 -6 7 7 10 15 7 18 -3 3 -9 -2 -12 -12z"/>
<path d="M2110 1331 c0 -14 18 -23 31 -15 8 4 7 9 -2 15 -18 11 -29 11 -29 0z"/>
<path d="M735 1308 c25 -15 45 -19 45 -8 0 4 -10 10 -22 14 -36 9 -45 7 -23
-6z"/>
<path d="M1055 1210 c-10 -11 -13 -20 -8 -20 13 0 38 29 31 35 -3 3 -13 -4
-23 -15z"/>
<path d="M2096 1065 c-11 -8 -15 -15 -10 -15 6 0 19 7 30 15 10 8 15 14 9 14
-5 0 -19 -6 -29 -14z"/>
<path d="M672 970 c0 -14 2 -19 5 -12 2 6 2 18 0 25 -3 6 -5 1 -5 -13z"/>
<path d="M1850 970 c-19 -5 -51 -10 -70 -13 -43 -5 -130 -45 -130 -60 0 -6 -3
-8 -6 -4 -6 6 -28 -13 -53 -45 -12 -16 -11 -18 9 -18 14 0 20 5 17 13 -3 8 3
14 16 14 11 1 24 8 29 15 8 10 11 10 15 1 8 -22 21 -14 18 12 -3 30 1 31 43 5
38 -24 40 -37 7 -52 -14 -6 -32 -22 -40 -35 -17 -25 -14 -28 16 -13 13 7 19 7
19 0 0 -5 -4 -10 -10 -10 -5 0 -10 -7 -10 -15 0 -9 9 -15 25 -15 13 0 28 -6
32 -12 4 -7 19 -13 33 -14 14 -1 32 -4 40 -8 10 -4 34 6 63 27 l46 33 -27 30
c-16 16 -37 35 -48 41 -16 11 -15 11 9 3 24 -8 27 -7 25 8 -2 13 3 16 28 14
24 -2 33 2 42 23 6 14 16 25 22 25 25 0 8 31 -20 37 -17 3 -33 10 -36 14 -6
11 -56 10 -104 -1z m-23 -117 c3 -7 -3 -9 -16 -6 -12 3 -21 10 -21 15 0 13 32
6 37 -9z"/>
<path d="M1260 920 c0 -6 7 -10 15 -10 8 0 15 2 15 4 0 2 -7 6 -15 10 -8 3
-15 1 -15 -4z"/>
<path d="M1627 823 c-5 -26 -4 -26 9 -8 16 22 18 35 5 35 -5 0 -11 -12 -14
-27z"/>
<path d="M630 805 c-11 -13 -10 -14 4 -9 9 3 16 10 16 15 0 13 -6 11 -20 -6z"/>
</g>
</svg>
